# xmcd
#
# Track frame offsets:
#	150
#	124042
#	159534
#
# Disc length: 2337 seconds
#
# Revision: 1
# Processed by: cddbd v1.5.2PL0 Copyright (c) Steve Scherf et al.
# Submitted via: audiograbber 1.83.01
#
DISCID=1d091f03
DTITLE=Grateful Dead - 69-04-18 Memorial Union Ballroom, Lafayette In
DYEAR=1900
DGENRE=
TTITLE0=Turn On Your Lovelight
TTITLE1=Cosmic Charlie
TTITLE2=BIODTL
EXTD=
EXTT0=
EXTT1=
EXTT2=
PLAYORDER=
